<svg width="36" height="36" viewBox="0 0 36 36" fill="none" xmlns="http://www.w3.org/2000/svg">
    <path fill-rule="evenodd" clip-rule="evenodd"
        d="M27.1349 3.82353C26.3069 3.35853 25.4249 3.31353 24.4934 3.42903C23.6084 3.54003 22.5299 3.81903 21.2354 4.15653L18.2069 4.94253C16.9124 5.28003 15.8354 5.55903 15.0119 5.89353C14.1434 6.24453 13.3934 6.71553 12.9074 7.53303C12.4184 8.35503 12.3704 9.23403 12.4919 10.152C12.6074 11.0175 12.8969 12.0675 13.2419 13.3185L14.0564 16.2645C14.4014 17.517 14.6924 18.5655 15.0389 19.3695C15.4064 20.2245 15.8969 20.952 16.7309 21.42C17.5589 21.8835 18.4409 21.93 19.3739 21.813C20.2589 21.7035 21.3374 21.423 22.6319 21.0855L25.6604 20.2995C26.9549 19.9635 28.0319 19.683 28.8554 19.3485C29.7239 18.9975 30.4739 18.5265 30.9599 17.709C31.4489 16.887 31.4969 16.008 31.3754 15.0915C31.2599 14.226 30.9704 13.1745 30.6254 11.9235L29.8109 8.97753C29.4659 7.72653 29.1749 6.67653 28.8284 5.87253C28.4609 5.01753 27.9674 4.29003 27.1349 3.82353ZM21.7289 6.35253C23.1164 5.99253 24.0509 5.75253 24.7739 5.66253C25.4654 5.57553 25.7969 5.65203 26.0384 5.78703C26.2739 5.91903 26.5004 6.14853 26.7629 6.76203C27.0404 7.40703 27.2924 8.30553 27.6644 9.65253L28.4354 12.447C28.8089 13.794 29.0549 14.694 29.1464 15.387C29.2334 16.0455 29.1554 16.344 29.0264 16.5585C28.8959 16.779 28.6589 17.0025 28.0139 17.2635C27.3419 17.535 26.4089 17.781 25.0214 18.141L22.1414 18.8895C20.7539 19.2495 19.8194 19.4895 19.0964 19.5795C18.4034 19.668 18.0734 19.5915 17.8319 19.4565C17.5964 19.3245 17.3699 19.0935 17.1074 18.4815C16.8299 17.8365 16.5779 16.9365 16.2059 15.5895L15.4349 12.7965C15.0614 11.4465 14.8154 10.548 14.7239 9.85653C14.6369 9.19653 14.7149 8.89953 14.8439 8.68353C14.9744 8.46303 15.2114 8.23953 15.8564 7.97853C16.5284 7.70703 17.4614 7.46253 18.8489 7.10103L21.7289 6.35253Z"
        fill="#541DFF" />
    <path fill-rule="evenodd" clip-rule="evenodd"
        d="M4.79913 7.08754C4.51495 7.01787 4.2148 7.06165 3.96237 7.20961C3.70994 7.35757 3.52509 7.59806 3.44703 7.88005C3.36897 8.16204 3.40384 8.46335 3.54426 8.72005C3.68467 8.97676 3.91957 9.16866 4.19913 9.25504L6.75363 9.96454C7.39263 10.1415 7.86813 10.6245 8.03013 11.211L10.9581 21.8055C10.8451 21.8275 10.7326 21.8535 10.6206 21.8835C7.65513 22.653 5.84313 25.6365 6.65613 28.584C7.46613 31.5165 10.5471 33.207 13.5006 32.439C16.0866 31.7685 17.7951 29.415 17.6511 26.871L30.2811 23.589C30.4241 23.5519 30.5584 23.487 30.6763 23.3979C30.7943 23.3089 30.8935 23.1975 30.9684 23.0701C31.0432 22.9428 31.0923 22.8019 31.1127 22.6556C31.1331 22.5092 31.1245 22.3603 31.0874 22.2173C31.0502 22.0743 30.9853 21.94 30.8963 21.8221C30.8072 21.7042 30.6959 21.6049 30.5685 21.5301C30.4411 21.4552 30.3002 21.4062 30.1539 21.3857C30.0076 21.3653 29.8586 21.3739 29.7156 21.411L17.0586 24.7005C16.6799 23.977 16.147 23.3454 15.4974 22.8504C14.8479 22.3554 14.0977 22.0089 13.2996 21.8355L10.1991 10.611C10.0084 9.93601 9.64627 9.32183 9.14791 8.8282C8.64955 8.33457 8.03194 7.97831 7.35513 7.79404L4.79913 7.08754ZM11.1876 24.06C13.0056 23.589 14.8296 24.6435 15.2976 26.3385C15.7626 28.0185 14.7426 29.793 12.9366 30.2625C11.1186 30.735 9.29463 29.679 8.82663 27.984C8.36163 26.304 9.38163 24.5295 11.1876 24.06Z"
        fill="#541DFF" />
</svg>