<svg width="163" height="246" viewBox="0 0 163 246" fill="none" xmlns="http://www.w3.org/2000/svg">
<path d="M92.5211 125.067L93.04 124.997L92.9456 124.482C89.342 104.807 91.3049 83.8895 99.7951 64.1344C122.718 10.797 184.542 -13.8577 237.883 9.06689C291.224 31.9914 315.883 93.814 292.96 147.151C277.841 182.33 245.801 205.032 210.431 209.835L209.912 209.905L210.006 210.42C213.61 230.095 211.647 251.013 203.157 270.768C180.234 324.105 118.41 348.76 65.0686 325.835C11.7275 302.911 -12.9311 241.088 9.99194 187.751C25.1106 152.572 57.151 129.87 92.5211 125.067Z" stroke="#00FFEA"/>
</svg>
