<svg width="24" height="24" viewBox="0 0 24 24" fill="none" xmlns="http://www.w3.org/2000/svg">
<path d="M9.89037 13.7242C9.7819 13.7242 9.69145 13.7242 9.6101 13.7242C8.92311 13.7242 8.23611 13.7242 7.54912 13.7242C7.13331 13.7242 7.00678 13.6077 7.00678 13.2047C6.99774 12.2643 6.99774 11.3148 7.00678 10.3744C7.00678 9.96239 7.13331 9.85484 7.54912 9.85484C8.23611 9.85484 8.92311 9.85484 9.6101 9.85484C9.69145 9.85484 9.7819 9.85484 9.89037 9.85484C9.89037 9.74737 9.89037 9.64878 9.89037 9.55921C9.90845 8.67255 9.87225 7.79467 9.9536 6.91695C10.1434 4.70477 11.8519 3.11091 14.0937 3.02134C15.0338 2.98552 15.9648 3.00364 16.9049 3.0126C17.2213 3.0126 17.3478 3.14715 17.3569 3.45166C17.3659 4.37416 17.3659 5.2965 17.3569 6.219C17.3569 6.53246 17.2303 6.65785 16.8868 6.66681C16.2541 6.68472 15.6213 6.68409 14.9886 6.69305C14.2564 6.70201 13.9581 6.98042 13.949 7.70587C13.94 8.3955 13.949 9.08433 13.949 9.79187C14.0484 9.80083 14.1298 9.80149 14.2112 9.80149C15.0247 9.80149 15.8383 9.80149 16.6518 9.80149C17.149 9.80149 17.2664 9.91743 17.2664 10.419C17.2664 11.3325 17.2664 12.2466 17.2664 13.1601C17.2664 13.59 17.1579 13.6971 16.7331 13.6971C15.9014 13.6971 15.0789 13.6971 14.2473 13.6971C14.1659 13.6971 14.0756 13.6971 13.9581 13.6971C13.9581 13.8046 13.9581 13.9029 13.9581 14.0015C13.9581 16.4286 13.9581 18.8652 13.9581 21.2924C13.9581 21.9193 13.8767 22 13.2439 22C12.3671 22 11.4903 22 10.6225 22C9.99879 22 9.91752 21.9189 9.91752 21.3099C9.91752 18.8828 9.91752 16.447 9.91752 14.0198C9.8904 13.9303 9.89037 13.8406 9.89037 13.7242Z" fill="#F8FAFC"/>
</svg>
