<svg width="24" height="24" viewBox="0 0 24 24" fill="none" xmlns="http://www.w3.org/2000/svg">
<path fill-rule="evenodd" clip-rule="evenodd" d="M15.6729 23H9.34293C9.29972 22.9967 9.25652 22.9922 9.21331 22.9878C9.12773 22.9789 9.04216 22.9701 8.95658 22.9701C8.12447 22.9503 7.28257 22.9109 6.47027 22.713C4.72681 22.2974 3.43894 21.3076 2.66627 19.6749C2.19078 18.6656 2.04218 17.5776 2.03227 16.4793C2.01246 14.2133 1.99274 11.9469 2.00264 9.6908L2.00369 9.57322C2.01289 8.52395 2.02209 7.47511 2.27992 6.44491C2.7356 4.58461 3.82524 3.25846 5.60833 2.53611C6.56922 2.15019 7.57966 2.04158 8.60989 2.03168C10.7496 2.01189 12.8793 1.9928 15.019 2.0027L15.0294 2.0027C16.1454 2.00269 17.2711 2.00269 18.3772 2.23945C20.4178 2.68473 21.8444 3.85225 22.5675 5.83129C22.9143 6.78123 22.9935 7.78111 22.9935 8.78052C23.0034 11.2048 23.0034 13.6191 22.9836 16.0435C22.9737 16.7361 22.9242 17.4288 22.8152 18.1018C22.5973 19.497 21.9732 20.674 20.8736 21.5844C19.8038 22.4651 18.5358 22.8221 17.1688 22.9111C16.6735 22.9408 16.1782 22.9703 15.6729 23ZM12.5129 21.1399V21.1099C12.6978 21.1099 12.8827 21.1121 13.0676 21.1143C13.4374 21.1187 13.8072 21.1231 14.177 21.1099C14.463 21.1005 14.749 21.0939 15.0348 21.0873C15.947 21.0662 16.8579 21.0451 17.763 20.9321C19.3777 20.7243 20.4773 19.7938 20.8636 18.1809C21.0221 17.5377 21.0716 16.8553 21.0914 16.1923C21.1311 14.2429 21.1411 12.2934 21.1312 10.344C21.1213 9.32484 21.0914 8.30555 20.9726 7.29624C20.7745 5.60416 19.7047 4.45612 18.0405 4.12958C17.3173 3.98115 16.5645 3.94138 15.8215 3.93149C13.8502 3.9018 11.8789 3.90203 9.90764 3.92182C8.99629 3.93172 8.0651 3.96109 7.16365 4.09963C5.55887 4.33711 4.46916 5.37672 4.14226 6.95995C4.00357 7.64272 3.95409 8.3553 3.94419 9.05786C3.90456 10.7499 3.89463 12.4516 3.91444 14.1437C3.92434 15.3212 3.9541 16.4983 4.07297 17.6659C4.19185 18.8731 4.76644 19.8429 5.84619 20.4663C6.5099 20.8423 7.23295 21.001 7.98581 21.0307C8.75109 21.0509 9.52158 21.0687 10.2946 21.0865L10.2953 21.0865L10.2969 21.0865C11.034 21.1035 11.7735 21.1206 12.5129 21.1399ZM6.77344 12.0228C6.77344 9.1233 9.14105 6.76313 12.0283 6.77277C14.9251 6.7824 17.2638 9.1139 17.2734 12.0133C17.283 14.9127 14.9251 17.2727 12.0283 17.2727C9.13143 17.2823 6.77344 14.9222 6.77344 12.0228ZM12.0283 15.4232C13.9146 15.4232 15.4256 13.9107 15.4352 12.0228C15.4352 10.1347 13.9243 8.62238 12.0476 8.61274C10.1516 8.60311 8.63094 10.1251 8.63094 12.0228C8.62132 13.9107 10.142 15.4232 12.0283 15.4232ZM20.1365 7.29589C20.159 6.48437 19.5392 5.83004 18.739 5.81877C17.9388 5.79623 17.2853 6.41667 17.274 7.20564C17.2515 8.00588 17.8826 8.67039 18.6715 8.68166C19.4717 8.69293 20.1139 8.08486 20.1365 7.29589Z" fill="#F8FAFC"/>
</svg>
