<svg width="36" height="36" viewBox="0 0 36 36" fill="none" xmlns="http://www.w3.org/2000/svg">
    <path
        d="M4.5 13.5H31.5M4.5 13.5V28.4999C4.5 29.2956 4.81607 30.0587 5.37868 30.6213C5.94129 31.1839 6.70435 31.4999 7.5 31.4999H28.5C29.2956 31.4999 30.0587 31.1839 30.6213 30.6213C31.1839 30.0587 31.5 29.2956 31.5 28.4999V13.5M4.5 13.5L8.175 6.14995C8.42545 5.65293 8.80922 5.23538 9.28339 4.94399C9.75756 4.6526 10.3034 4.49885 10.86 4.49995H25.14C25.6991 4.49606 26.2482 4.64849 26.7252 4.94003C27.2023 5.23158 27.5884 5.65064 27.84 6.14995L31.5 13.5M18 4.49995V13.5"
        stroke="#F1F5F9" stroke-width="2.5" stroke-linecap="round" stroke-linejoin="round" />
</svg>
    