<svg width="24" height="24" viewBox="0 0 24 24" fill="none" xmlns="http://www.w3.org/2000/svg">
<path fill-rule="evenodd" clip-rule="evenodd" d="M18.5 21C19.881 21 21 19.881 21 18.5V5.5C21 4.119 19.881 3 18.5 3H5.5C4.1195 3 3 4.119 3 5.5V18.5C3 19.881 4.1195 21 5.5 21H18.5ZM8.5 9.5H6V18H8.5V9.5ZM7.2285 8.5H7.2425C8.0175 8.5 8.5 7.9435 8.5 7.2495C8.486 6.54 8.0175 6 7.257 6C6.4975 6 6 6.54 6 7.2495C6 7.944 6.4825 8.5 7.2285 8.5ZM15.5 18H18L17.9995 13.137C17.9995 10.625 16.658 9.5 14.869 9.5C13.425 9.5 12.8605 10.25 12.5 10.808V9.5H10V18H12.5V13.5C12.5 13.4583 12.4994 13.4096 12.4987 13.3566C12.4954 13.0993 12.4908 12.7416 12.5505 12.5965C12.7475 12.1075 13.1535 11.6015 13.904 11.6015C14.8875 11.6015 15.5 12.3515 15.5 13.4505V18Z" fill="#F8FAFC"/>
</svg>
