<svg width="151" height="40" viewBox="0 0 151 40" fill="none" xmlns="http://www.w3.org/2000/svg">
<path d="M104.15 21.3676C104.358 23.7589 106.217 25.1751 108.492 25.1751C109.885 25.1751 111.558 24.6175 112.37 23.5978L113.415 24.5264C112.279 25.9425 110.303 26.6612 108.492 26.6612C105.081 26.6612 102.547 24.3631 102.547 20.6956C102.547 17.259 105.009 14.7744 108.422 14.7744C111.836 14.7744 114.575 16.8414 114.134 21.3676H104.15ZM112.671 20.0447C112.625 17.5368 110.744 16.1672 108.446 16.1672C106.147 16.1672 104.451 17.5601 104.15 20.0447H112.671Z" fill="#323232"/>
<path d="M125.834 14.9818H127.297C127.297 18.8126 127.297 22.6201 127.297 26.4509H125.857V24.1762C124.859 25.87 123.025 26.6841 121.305 26.6841C118.055 26.6841 115.453 24.3627 115.453 20.7185C115.453 17.0954 118.078 14.8228 121.328 14.8228C123.092 14.8228 124.973 15.6347 125.834 17.2607V14.9818ZM117.009 20.7163C117.009 23.432 118.96 25.2213 121.375 25.2213C127.297 25.2213 127.297 16.2368 121.375 16.2368C118.96 16.2347 117.009 18.0239 117.009 20.7163Z" fill="#323232"/>
<path d="M137.696 17.329C136.627 16.3538 135.535 16.1672 134.306 16.1672C132.633 16.1439 131.148 16.7481 131.193 18.0243C131.216 19.3726 132.887 19.697 134.327 19.9048C136.394 20.2079 139.063 20.5535 139.063 23.3413C139.017 25.7559 136.672 26.6845 134.35 26.6845C132.376 26.6845 130.425 26.0358 129.266 24.4543L130.241 23.3858C131.216 24.7087 132.913 25.2196 134.373 25.2429C135.673 25.2429 137.507 24.8719 137.507 23.3158C137.507 21.8064 136.021 21.5265 134.187 21.2721C131.982 20.9478 129.681 20.4369 129.66 18.0688C129.66 15.7241 132.028 14.7256 134.28 14.7489C136 14.7489 137.414 15.2132 138.599 16.305L137.696 17.329Z" fill="#323232"/>
<path d="M150.91 14.9819L143.642 31.9313H141.947L144.362 26.3133L139.766 14.9841H141.509L143.947 21.3207L145.223 24.6173L146.523 21.3207L149.195 14.9841L150.91 14.9819Z" fill="#323232"/>
<path d="M29.4974 11.1427C30.0593 10.3456 30.1314 9.30252 29.6819 8.43545C29.2324 7.57049 28.3376 7.02565 27.3623 7.02565H12.5266C11.0615 7.02565 9.82752 8.22345 9.8572 9.69048C9.88476 11.1088 11.0446 12.2493 12.4694 12.2493H22.3266L10.5739 28.9252C10.012 29.7244 9.94201 30.7674 10.3894 31.6324C10.8389 32.4974 11.7337 33.0422 12.709 33.0422H38.1566C39.1765 33.0422 40.0013 33.8669 40.0013 34.8866V34.9883C40.0013 37.757 37.758 40 34.9889 40H13.8751C6.21243 39.9958 0 33.7842 0 26.1225V13.8732C0 6.21158 6.21243 0 13.8751 0H26.1261C33.7888 0 40.0013 6.21158 40.0013 13.8732V18.6008C40.0013 23.6909 35.8752 27.8164 30.7844 27.8164H17.7447L29.4974 11.1427Z" fill="#541DFE"/>
<path d="M51.8594 17.5515V15.035H61.2607L56.2229 23.8839H61.2607V26.4173H51.8594L56.8972 17.5515H51.8594Z" fill="#323232"/>
<path d="M73.8895 20.7252V26.4153H71.3558V25.4528C70.3932 26.0952 69.3394 26.4153 68.1987 26.4153C66.6275 26.4153 65.2875 25.8598 64.1765 24.7468C63.0654 23.636 62.5078 22.294 62.5078 20.7252C62.5078 19.1564 63.0633 17.8145 64.1765 16.7036C65.2875 15.5927 66.6296 15.0352 68.1987 15.0352C69.7677 15.0352 71.1098 15.5906 72.2208 16.7036C73.3319 17.8166 73.8895 19.1564 73.8895 20.7252ZM70.4271 18.478C69.808 17.859 69.0637 17.5495 68.1965 17.5495C67.3293 17.5495 66.5851 17.859 65.966 18.478C65.3469 19.0971 65.0373 19.8454 65.0373 20.7252C65.0373 21.605 65.3469 22.3364 65.966 22.9554C66.5851 23.5745 67.3272 23.884 68.1965 23.884C69.0659 23.884 69.808 23.5745 70.4271 22.9554C71.0462 22.3364 71.3536 21.5944 71.3536 20.7252C71.3558 19.856 71.0462 19.0949 70.4271 18.478Z" fill="#323232"/>
<path d="M86.7369 15.0352V26.4174H84.2031V15.0352H86.7369Z" fill="#323232"/>
<path d="M100.35 20.7254V29.8922H97.8167V25.4699C96.8647 26.0996 95.8109 26.4154 94.6596 26.4154C93.0885 26.4154 91.7484 25.8621 90.6374 24.7555C89.5264 23.6488 88.9688 22.3048 88.9688 20.7233C88.9688 19.1417 89.5243 17.8125 90.6374 16.7016C91.7484 15.5908 93.0906 15.0332 94.6596 15.0332C96.2286 15.0332 97.5707 15.5886 98.6818 16.7016C99.7949 17.8146 100.35 19.1566 100.35 20.7254ZM96.8901 18.4867C96.271 17.8613 95.5268 17.5496 94.6596 17.5496C93.7924 17.5496 93.0482 17.8613 92.4291 18.4867C91.8099 19.1121 91.5004 19.8583 91.5004 20.7254C91.5004 21.5925 91.8099 22.3557 92.4291 22.9726C93.0482 23.5916 93.7903 23.899 94.6596 23.899C95.5289 23.899 96.271 23.5895 96.8901 22.9726C97.5093 22.3535 97.8167 21.6052 97.8167 20.7254C97.8167 19.8456 97.5071 19.1121 96.8901 18.4867Z" fill="#323232"/>
<path d="M81.4657 23.8839V26.4173H79.7376C78.2492 26.4173 77.0406 25.211 77.0406 23.7228V16.7862H75.3359V15.0351H77.0406V11.8784H79.5744V15.0351H81.2664V16.7862H79.5744L79.5723 23.2903C79.5723 23.6189 79.8373 23.8839 80.1659 23.8839H81.4657Z" fill="#323232"/>
</svg>
