<svg width="36" height="36" viewBox="0 0 36 36" fill="none" xmlns="http://www.w3.org/2000/svg">
    <path
        d="M28.3124 7.3125L32.8124 2.8125M2.81238 32.8125L7.31238 28.3125M11.0624 20.0625L14.8124 16.3125M15.5624 24.5625L19.3124 20.8125M9.26238 30.2625C9.59683 30.5981 9.99424 30.8644 10.4318 31.0461C10.8694 31.2278 11.3386 31.3213 11.8124 31.3213C12.2862 31.3213 12.7553 31.2278 13.1929 31.0461C13.6305 30.8644 14.0279 30.5981 14.3624 30.2625L17.8124 26.8125L8.81238 17.8125L5.36238 21.2625C5.02676 21.597 4.76047 21.9944 4.57877 22.432C4.39707 22.8695 4.30354 23.3387 4.30354 23.8125C4.30354 24.2863 4.39707 24.7555 4.57877 25.1931C4.76047 25.6306 5.02676 26.0281 5.36238 26.3625L9.26238 30.2625ZM17.8124 8.8125L26.8124 17.8125L30.2624 14.3625C30.598 14.028 30.8643 13.6306 31.046 13.193C31.2277 12.7555 31.3212 12.2863 31.3212 11.8125C31.3212 11.3387 31.2277 10.8695 31.046 10.432C30.8643 9.99437 30.598 9.59695 30.2624 9.2625L26.3624 5.3625C26.0279 5.02688 25.6305 4.76059 25.1929 4.57889C24.7553 4.39719 24.2862 4.30366 23.8124 4.30366C23.3386 4.30366 22.8694 4.39719 22.4318 4.57889C21.9942 4.76059 21.5968 5.02688 21.2624 5.3625L17.8124 8.8125Z"
        stroke="#F1F5F9" stroke-width="2.5" stroke-linecap="round" stroke-linejoin="round" />
</svg>
    