<svg width="36" height="36" viewBox="0 0 36 36" fill="none" xmlns="http://www.w3.org/2000/svg">
    <path
        d="M29.6053 8.55C29.6053 10.7868 24.2371 12.6 17.6151 12.6C10.9932 12.6 5.625 10.7868 5.625 8.55M29.6053 8.55C29.6053 6.31325 24.2371 4.5 17.6151 4.5C10.9932 4.5 5.625 6.31325 5.625 8.55M29.6053 8.55V14.355M5.625 8.55L5.625 27.45C5.62416 28.3257 6.46368 29.1779 8.0177 29.8789C9.57172 30.5799 11.7565 31.0918 14.2446 31.338M5.625 18C5.62308 18.7549 6.24575 19.4949 7.42276 20.1365C8.59977 20.7782 10.2843 21.296 12.2862 21.6315M17.6151 18V23.4M17.6151 23.4H22.9441M17.6151 23.4L20.3995 20.5785C21.5586 19.404 23.1706 18.675 24.9424 18.675C26.5324 18.675 28.0573 19.315 29.1816 20.4543C30.3059 21.5936 30.9375 23.1388 30.9375 24.75C30.9375 26.1667 30.4976 27.5475 29.6801 28.6968C28.8627 29.8461 27.7091 30.7056 26.3828 31.1536C25.0564 31.6016 23.6246 31.6154 22.2902 31.193C20.9557 30.7706 19.7862 29.9334 18.9474 28.8"
        stroke="#F1F5F9" stroke-width="2.5" stroke-linecap="round" stroke-linejoin="round" />
</svg>
    