<svg width="36" height="36" viewBox="0 0 36 36" fill="none" xmlns="http://www.w3.org/2000/svg">
<path fill-rule="evenodd" clip-rule="evenodd" d="M27.0009 15.3H20.1375L24.2289 5.7546C24.2876 5.61764 24.3114 5.46825 24.2982 5.31984C24.2849 5.17142 24.235 5.02862 24.1529 4.90426C24.0708 4.77989 23.9591 4.67785 23.8279 4.60729C23.6966 4.53673 23.5499 4.49987 23.4009 4.5H14.4009C14.2247 4.49984 14.0522 4.55144 13.9051 4.6484C13.7579 4.74536 13.6424 4.8834 13.5729 5.0454L8.17293 17.6454C8.11422 17.7824 8.09043 17.9317 8.1037 18.0802C8.11698 18.2286 8.16689 18.3714 8.24897 18.4957C8.33105 18.6201 8.44272 18.7221 8.57396 18.7927C8.70521 18.8633 8.85192 18.9001 9.00093 18.9H13.4541L8.16573 32.0652C7.80573 32.9598 8.91633 33.7176 9.61833 33.0552L18.6615 24.5178L27.5859 16.884C27.7258 16.7644 27.8256 16.6049 27.8719 16.4268C27.9183 16.2488 27.909 16.0608 27.8453 15.8882C27.7815 15.7156 27.6664 15.5667 27.5154 15.4615C27.3645 15.3564 27.1849 15.3 27.0009 15.3ZM18.7731 17.1H24.5637L17.4573 23.1804L11.3643 28.9314L15.6213 18.3348C15.6761 18.1982 15.6965 18.0504 15.6808 17.9041C15.6651 17.7578 15.6138 17.6176 15.5314 17.4958C15.449 17.3739 15.3379 17.2741 15.208 17.2051C15.0781 17.1361 14.9332 17.1 14.7861 17.1H10.3653L14.9949 6.3H22.0365L17.9451 15.8454C17.8864 15.9824 17.8626 16.1317 17.8759 16.2802C17.8892 16.4286 17.9391 16.5714 18.0212 16.6957C18.1032 16.8201 18.2149 16.9221 18.3462 16.9927C18.4774 17.0633 18.6241 17.1001 18.7731 17.1Z" fill="#541DFF"/>
</svg>
