<svg width="24" height="24" viewBox="0 0 24 24" fill="none" xmlns="http://www.w3.org/2000/svg">
<path d="M22.1458 3.14499C21.7858 2.83971 21.2203 2.79603 20.6357 3.03075H20.6347C20.0199 3.27747 3.22946 10.4794 2.54594 10.7736C2.42162 10.8168 1.33586 11.2219 1.4477 12.1243C1.54754 12.9379 2.42018 13.2749 2.52674 13.3138L6.79538 14.7754C7.07858 15.7181 8.12258 19.1962 8.35346 19.9392C8.49746 20.4024 8.73218 21.0111 9.14354 21.1363C9.5045 21.2755 9.86354 21.1483 10.0959 20.9659L12.7056 18.5453L16.9186 21.8309L17.0189 21.8909C17.305 22.0176 17.5791 22.081 17.8407 22.081C18.0427 22.081 18.2367 22.0431 18.4219 21.9672C19.0531 21.708 19.3056 21.1066 19.332 21.0384L22.4789 4.68147C22.6709 3.80787 22.404 3.36339 22.1458 3.14499ZM10.56 15.36L9.12002 19.2L7.68002 14.4L18.72 6.24003L10.56 15.36Z" fill="#F8FAFC"/>
</svg>
