<svg width="24" height="24" viewBox="0 0 24 24" fill="none" xmlns="http://www.w3.org/2000/svg">
<path d="M19.68 1.91998H4.31998C2.99662 1.91998 1.91998 2.99662 1.91998 4.31998V19.68C1.91998 21.0033 2.99662 22.08 4.31998 22.08H19.68C21.0033 22.08 22.08 21.0033 22.08 19.68V4.31998C22.08 2.99662 21.0033 1.91998 19.68 1.91998ZM17.7629 10.715C17.6539 10.7251 17.5435 10.7318 17.4317 10.7318C16.1726 10.7318 15.0662 10.0843 14.4225 9.10558C14.4225 11.6731 14.4225 14.5944 14.4225 14.6433C14.4225 16.9037 12.5899 18.7363 10.3296 18.7363C8.06926 18.7363 6.23662 16.9037 6.23662 14.6433C6.23662 12.383 8.06926 10.5504 10.3296 10.5504C10.415 10.5504 10.4985 10.5581 10.5825 10.5633V12.5803C10.4985 12.5702 10.416 12.5549 10.3296 12.5549C9.17566 12.5549 8.24062 13.4899 8.24062 14.6438C8.24062 15.7977 9.17566 16.7328 10.3296 16.7328C11.4835 16.7328 12.5025 15.8237 12.5025 14.6697C12.5025 14.6241 12.5227 5.26462 12.5227 5.26462H14.4504C14.6318 6.9883 16.0233 8.34862 17.7629 8.47342V10.715Z" fill="#F8FAFC"/>
</svg>
