<svg width="36" height="36" viewBox="0 0 36 36" fill="none" xmlns="http://www.w3.org/2000/svg">
<path d="M2.25 10.6875C2.25 9.34484 2.78337 8.05717 3.73277 7.10777C4.68217 6.15837 5.96984 5.625 7.3125 5.625H28.6875C30.0302 5.625 31.3178 6.15837 32.2672 7.10777C33.2166 8.05717 33.75 9.34484 33.75 10.6875V25.3125C33.75 26.6552 33.2166 27.9428 32.2672 28.8922C31.3178 29.8416 30.0302 30.375 28.6875 30.375H7.3125C5.96984 30.375 4.68217 29.8416 3.73277 28.8922C2.78337 27.9428 2.25 26.6552 2.25 25.3125V10.6875ZM7.3125 7.875C6.56658 7.875 5.85121 8.17132 5.32376 8.69876C4.79632 9.22621 4.5 9.94158 4.5 10.6875V12.375H31.5V10.6875C31.5 9.94158 31.2037 9.22621 30.6762 8.69876C30.1488 8.17132 29.4334 7.875 28.6875 7.875H7.3125ZM4.5 25.3125C4.5 26.0584 4.79632 26.7738 5.32376 27.3012C5.85121 27.8287 6.56658 28.125 7.3125 28.125H28.6875C29.4334 28.125 30.1488 27.8287 30.6762 27.3012C31.2037 26.7738 31.5 26.0584 31.5 25.3125V14.625H4.5V25.3125ZM23.625 21.375H27C27.2984 21.375 27.5845 21.4935 27.7955 21.7045C28.0065 21.9155 28.125 22.2016 28.125 22.5C28.125 22.7984 28.0065 23.0845 27.7955 23.2955C27.5845 23.5065 27.2984 23.625 27 23.625H23.625C23.3266 23.625 23.0405 23.5065 22.8295 23.2955C22.6185 23.0845 22.5 22.7984 22.5 22.5C22.5 22.2016 22.6185 21.9155 22.8295 21.7045C23.0405 21.4935 23.3266 21.375 23.625 21.375Z" fill="#541DFF"/>
</svg>
