<svg width="36" height="36" viewBox="0 0 36 36" fill="none" xmlns="http://www.w3.org/2000/svg">
    <g clip-path="url(#clip0_274_1503)">
        <path
            d="M17.7983 12.0993V17.4983M17.7983 22.8974H17.8118M28.5965 18.8481C28.5965 25.597 23.8723 28.9714 18.2573 30.9286C17.9632 31.0282 17.6438 31.0235 17.3529 30.9151C11.7244 28.9714 7.00015 25.597 7.00015 18.8481V9.3997C7.00015 9.04172 7.14236 8.6984 7.39549 8.44527C7.64862 8.19214 7.99194 8.04993 8.34993 8.04993C11.0495 8.04993 14.4239 6.4302 16.7725 4.37854C17.0585 4.13423 17.4222 4 17.7983 4C18.1745 4 18.5382 4.13423 18.8242 4.37854C21.1863 6.4437 24.5472 8.04993 27.2468 8.04993C27.6047 8.04993 27.9481 8.19214 28.2012 8.44527C28.4543 8.6984 28.5965 9.04172 28.5965 9.3997V18.8481Z"
            stroke="#F1F5F9" stroke-width="2.5" stroke-linecap="round" stroke-linejoin="round" />
    </g>
    <defs>
        <clipPath id="clip0_274_1503">
            <rect width="36" height="36" fill="white" />
        </clipPath>
    </defs>
</svg>
    