<svg width="30" height="30" viewBox="0 0 30 30" fill="none" xmlns="http://www.w3.org/2000/svg">
<path d="M26.4359 5.34861C24.095 2.53765 21.0684 0.833429 17.4639 0.206598C16.9644 0.118449 16.4453 0.0685602 15.936 0H14.0652C13.5265 0.0783535 12.978 0.127784 12.4491 0.225727C8.19815 1.00928 4.87775 3.21318 2.46826 6.7881C1.02843 8.91347 0.244859 11.2838 0.0489607 13.8402C0.039166 13.9185 0.00979469 13.9866 0 14.0649V15.9454C0.0783576 16.4939 0.127311 17.0528 0.22526 17.5915C0.8913 21.2643 2.68374 24.2803 5.56338 26.6407C7.86513 28.5212 10.5097 29.6384 13.4775 29.9224C17.6892 30.324 21.4406 29.1677 24.6728 26.435C27.3762 24.153 29.1098 21.2542 29.7367 17.7675C30.5595 13.125 29.4526 8.96272 26.4359 5.34861ZM8.84461 14.1042C8.88379 13.5068 8.91317 12.909 8.97194 12.3213C9.10907 10.9306 9.35394 9.55985 9.73593 8.21803C9.77511 8.08091 9.80449 7.95382 10.0102 7.96362C11.3325 7.97341 12.6645 7.97318 13.9966 7.97318C14.026 7.97318 14.0554 7.98251 14.1044 7.9923V14.1137H8.84461V14.1042ZM14.1044 15.8871V22.0085C14.0456 22.0183 13.977 22.0276 13.9183 22.0276C12.6254 22.0374 11.3325 22.0274 10.0494 22.0372C9.90244 22.0372 9.80449 22.0184 9.75552 21.8421C9.19722 19.9126 8.92298 17.9341 8.85442 15.8871H14.1044ZM14.0946 1.90052V6.19988H10.4411C11.2737 4.42711 12.165 2.76242 14.0946 1.90052ZM10.4118 2.57675C9.95141 3.38967 9.49106 4.21194 9.04051 5.04445C8.86418 5.35787 8.76626 5.71023 8.60955 6.03344C8.57037 6.1118 8.47241 6.2104 8.39406 6.2104C7.32643 6.22019 6.24901 6.21996 5.10303 6.21996C6.62121 4.52554 8.38426 3.33091 10.4118 2.57675ZM2.10585 11.998C2.39969 10.6268 2.9384 9.36416 3.66321 8.16926C3.72198 8.07131 3.86891 7.97318 3.97665 7.97318C5.24996 7.96338 6.53306 7.96362 7.80637 7.96362C7.85535 7.96362 7.90431 7.97318 7.98267 7.97318C7.44396 9.981 7.17951 12.0084 7.10116 14.0946H1.74346C1.87079 13.3796 1.95893 12.6836 2.10585 11.998ZM3.33999 21.2643C2.46826 19.6581 1.94915 17.9434 1.81202 16.1118C1.80223 16.0531 1.81202 15.985 1.81202 15.8871H7.10116C7.17951 17.9537 7.44397 19.9806 7.99247 22.0276H4.61329C3.74157 22.0374 3.74158 22.0381 3.33999 21.2643ZM5.10303 23.7904C6.2588 23.7904 7.31663 23.7912 8.37446 23.801C8.45281 23.801 8.57036 23.8598 8.59974 23.9186C9.07968 25.1527 9.68696 26.3273 10.4607 27.4145C8.38425 26.6701 6.631 25.475 5.10303 23.7904ZM14.1044 28.0314C13.0074 27.9433 10.8819 25.4562 10.4901 23.801C10.5391 23.801 10.5881 23.7904 10.6272 23.7904H14.1044V28.0314ZM25.9755 7.97318C26.0833 7.98297 26.24 8.0316 26.289 8.10995C27.3958 9.91215 28.0324 11.8614 28.1891 13.977C28.1989 14.0162 28.1891 14.0552 28.1793 14.1042H22.8902C22.8216 12.0376 22.5474 10.0004 22.0087 7.98275C22.1164 7.97295 22.185 7.97318 22.2535 7.97318C23.4975 7.97318 24.7414 7.96338 25.9755 7.97318ZM24.8883 6.2104C23.7325 6.2104 22.6551 6.21947 21.5875 6.19988C21.4994 6.19988 21.372 6.06276 21.3426 5.95502C20.9313 4.91682 20.4317 3.93739 19.7951 3.01673C19.7069 2.87961 19.609 2.74321 19.4621 2.53753C21.6071 3.32108 23.3603 4.52578 24.8883 6.2104ZM21.1467 15.8967C21.088 16.69 21.0684 17.4732 20.9509 18.2371C20.755 19.4222 20.4807 20.6072 20.2456 21.7923C20.2163 21.9197 20.1869 22.0372 19.991 22.0372C18.6393 22.0274 17.2778 22.0372 15.8968 22.0372V15.8967H21.1467ZM15.8968 14.1042V7.97318C17.2876 7.97318 18.6491 7.96316 20.0106 7.98275C20.0889 7.98275 20.2065 8.10024 20.226 8.18839C20.657 9.61832 20.9117 11.088 21.0292 12.5767C21.0684 13.0762 21.0978 13.5848 21.137 14.1137H15.8968V14.1042ZM15.887 1.90052C17.8166 2.75262 18.7079 4.42733 19.5502 6.19031H15.887V1.90052ZM15.887 28.0515V23.8105H19.4914C19.1192 25.4265 17.1701 27.7283 15.887 28.0515ZM19.5306 27.4145C20.1967 26.4742 20.7452 25.4754 21.1859 24.4274C21.4504 23.7908 21.4504 23.7904 22.1556 23.7904H24.8981C23.3603 25.475 21.5973 26.6701 19.5306 27.4145ZM27.8855 18.0027C27.5917 19.3641 27.0529 20.6175 26.3575 21.8124C26.2596 21.9691 26.1616 22.0372 25.9755 22.0372C24.7512 22.0274 23.5269 22.0372 22.3123 22.0372H22.0185C22.567 20.0098 22.8314 17.9829 22.9 15.8967H28.2577C28.1206 16.6116 28.0324 17.3171 27.8855 18.0027Z" fill="#F8FAFC"/>
</svg>
